<svg viewBox="0 0 766 207" fill-rule="evenodd" clip-rule="evenodd" xmlns="http://www.w3.org/2000/svg">
<path d="M161.524 45.508H110.299C109.14 39.985 105.435 35.4376 100.507 33.0063L123.821 4.78755L118.043 0.00749988L92.5312 30.8752L67.0238 0L61.2412 4.78005L84.555 32.9988C79.6275 35.4301 75.9225 39.9775 74.76 45.5005H23.5387C10.56 45.5005 0 56.0624 0 69.0518V173.008C0 184.332 8.0325 193.813 18.6937 196.057V206.097H26.1938V196.563H158.876V206.097H166.376V196.057C177.041 193.813 185.066 184.332 185.066 173.008V69.0593C185.066 56.0699 174.503 45.508 161.524 45.508ZM92.5312 38.5818C97.0912 38.5818 100.995 41.4671 102.521 45.508H82.5412C84.0637 41.4633 87.9675 38.5818 92.5312 38.5818ZM177.566 173.012C177.566 181.863 170.366 189.059 161.528 189.059H23.5387C14.6962 189.059 7.5 181.863 7.5 173.012V69.0593C7.5 60.2121 14.6962 53.012 23.5387 53.012H74.3662H110.704H161.528C170.366 53.012 177.566 60.2121 177.566 69.0593V173.012Z" fill="black"/>
<path d="M92.6662 59.6006C40.6725 59.6006 25.2225 62.4859 20.6325 65.2886C17.9587 66.6393 13.605 73.4304 13.605 114.507C13.605 126.394 14.1 152.673 18.3 161.1C18.6075 164.323 23.2125 169.418 92.2537 169.418C137.977 169.418 155.415 167.182 162.097 164.743C162.105 164.713 162.12 164.69 162.127 164.664C162.832 164.518 163.564 164.27 164.272 163.801C165.319 163.118 166.069 162.225 166.44 161.362C166.477 161.34 166.507 161.302 166.549 161.287C170.539 153.892 171.457 132.517 171.457 114.511C171.457 96.5427 170.557 75.1151 166.601 67.7461C166.132 64.5044 160.47 59.6006 92.6662 59.6006ZM160.661 156.68H160.601C160.162 157.727 159.24 158.556 157.759 158.556C157.729 158.556 157.706 158.541 157.68 158.541C150.281 160.094 127.781 161.91 92.2537 161.91C55.335 161.91 32.445 159.948 25.9987 158.357L24.6975 157.449C23.1525 154.35 21.105 138.19 21.105 114.507C21.105 93.3123 22.7475 78.1467 24.195 72.9727C24.2475 72.7138 24.3187 72.4699 24.4312 72.2335C24.4462 72.1885 24.4612 72.1322 24.4762 72.0872L24.5175 72.0797C24.9937 71.1642 25.86 70.4588 27.2137 70.4588C27.24 70.4588 27.2587 70.4739 27.285 70.4739C34.965 68.8905 58.5487 67.1083 92.67 67.1083C126.791 67.1083 150.427 68.8943 158.111 70.4739L158.104 70.4889L160.432 71.712C161.97 75.0888 163.961 91.1286 163.961 114.507C163.957 136.682 162.161 152.252 160.661 156.68Z" fill="black"/>
<path d="M159.986 182.392C162.619 182.392 164.753 180.257 164.753 177.623C164.753 174.99 162.619 172.855 159.986 172.855C157.354 172.855 155.22 174.99 155.22 177.623C155.22 180.257 157.354 182.392 159.986 182.392Z" fill="black"/>
<path d="M155.805 96.9967C155.606 92.288 155.314 87.6918 154.867 83.5533H147.266C147.66 87.3016 148.012 91.819 148.264 96.9967H155.805Z" fill="black"/>
<path d="M148.481 102.625C148.597 106.365 148.672 110.358 148.672 114.624C148.672 127.388 148.08 137.942 147.289 145.461H154.875C155.872 136.228 156.172 124.885 156.172 114.624C156.172 110.725 156.105 106.669 156.004 102.625H148.481Z" fill="black"/>
<path d="M294.945 125.137H261.195V160H243.617V74.6875H299.164V88.9258H261.195V110.957H294.945V125.137Z" fill="black"/>
<path d="M342.992 160C342.211 158.477 341.645 156.582 341.293 154.316C337.191 158.887 331.859 161.172 325.297 161.172C319.086 161.172 313.93 159.375 309.828 155.781C305.766 152.188 303.734 147.656 303.734 142.188C303.734 135.469 306.215 130.312 311.176 126.719C316.176 123.125 323.383 121.309 332.797 121.27H340.59V117.637C340.59 114.707 339.828 112.363 338.305 110.605C336.82 108.848 334.457 107.969 331.215 107.969C328.363 107.969 326.117 108.652 324.477 110.02C322.875 111.387 322.074 113.262 322.074 115.645H305.141C305.141 111.973 306.273 108.574 308.539 105.449C310.805 102.324 314.008 99.8828 318.148 98.125C322.289 96.3281 326.938 95.4297 332.094 95.4297C339.906 95.4297 346.098 97.4023 350.668 101.348C355.277 105.254 357.582 110.762 357.582 117.871V145.352C357.621 151.367 358.461 155.918 360.102 159.004V160H342.992ZM328.988 148.223C331.488 148.223 333.793 147.676 335.902 146.582C338.012 145.449 339.574 143.945 340.59 142.07V131.172H334.262C325.785 131.172 321.273 134.102 320.727 139.961L320.668 140.957C320.668 143.066 321.41 144.805 322.895 146.172C324.379 147.539 326.41 148.223 328.988 148.223Z" fill="black"/>
<path d="M386.176 96.6016L386.703 103.926C391.234 98.2617 397.309 95.4297 404.926 95.4297C411.645 95.4297 416.645 97.4023 419.926 101.348C423.207 105.293 424.887 111.191 424.965 119.043V160H408.031V119.453C408.031 115.859 407.25 113.262 405.688 111.66C404.125 110.02 401.527 109.199 397.895 109.199C393.129 109.199 389.555 111.23 387.172 115.293V160H370.238V96.6016H386.176Z" fill="black"/>
<path d="M458.129 81.0156V96.6016H468.969V109.023H458.129V140.664C458.129 143.008 458.578 144.688 459.477 145.703C460.375 146.719 462.094 147.227 464.633 147.227C466.508 147.227 468.168 147.09 469.613 146.816V159.648C466.293 160.664 462.875 161.172 459.359 161.172C447.484 161.172 441.43 155.176 441.195 143.184V109.023H431.938V96.6016H441.195V81.0156H458.129Z" fill="black"/>
<path d="M535.473 128.887C535.473 138.652 533.246 146.484 528.793 152.383C524.379 158.242 518.402 161.172 510.863 161.172C504.457 161.172 499.281 158.945 495.336 154.492V184.375H478.402V96.6016H494.105L494.691 102.812C498.793 97.8906 504.145 95.4297 510.746 95.4297C518.559 95.4297 524.633 98.3203 528.969 104.102C533.305 109.883 535.473 117.852 535.473 128.008V128.887ZM518.539 127.656C518.539 121.758 517.484 117.207 515.375 114.004C513.305 110.801 510.277 109.199 506.293 109.199C500.98 109.199 497.328 111.23 495.336 115.293V141.25C497.406 145.43 501.098 147.52 506.41 147.52C514.496 147.52 518.539 140.898 518.539 127.656Z" fill="black"/>
<path d="M561.898 96.6016L562.426 103.691C566.918 98.1836 572.992 95.4297 580.648 95.4297C588.812 95.4297 594.418 98.6523 597.465 105.098C601.918 98.6523 608.266 95.4297 616.508 95.4297C623.383 95.4297 628.5 97.4414 631.859 101.465C635.219 105.449 636.898 111.465 636.898 119.512V160H619.906V119.57C619.906 115.977 619.203 113.359 617.797 111.719C616.391 110.039 613.91 109.199 610.355 109.199C605.277 109.199 601.762 111.621 599.809 116.465L599.867 160H582.934V119.629C582.934 115.957 582.211 113.301 580.766 111.66C579.32 110.02 576.859 109.199 573.383 109.199C568.578 109.199 565.102 111.191 562.953 115.176V160H546.02V96.6016H561.898Z" fill="black"/>
<path d="M686.703 160C685.922 158.477 685.355 156.582 685.004 154.316C680.902 158.887 675.57 161.172 669.008 161.172C662.797 161.172 657.641 159.375 653.539 155.781C649.477 152.188 647.445 147.656 647.445 142.188C647.445 135.469 649.926 130.312 654.887 126.719C659.887 123.125 667.094 121.309 676.508 121.27H684.301V117.637C684.301 114.707 683.539 112.363 682.016 110.605C680.531 108.848 678.168 107.969 674.926 107.969C672.074 107.969 669.828 108.652 668.188 110.02C666.586 111.387 665.785 113.262 665.785 115.645H648.852C648.852 111.973 649.984 108.574 652.25 105.449C654.516 102.324 657.719 99.8828 661.859 98.125C666 96.3281 670.648 95.4297 675.805 95.4297C683.617 95.4297 689.809 97.4023 694.379 101.348C698.988 105.254 701.293 110.762 701.293 117.871V145.352C701.332 151.367 702.172 155.918 703.812 159.004V160H686.703ZM672.699 148.223C675.199 148.223 677.504 147.676 679.613 146.582C681.723 145.449 683.285 143.945 684.301 142.07V131.172H677.973C669.496 131.172 664.984 134.102 664.438 139.961L664.379 140.957C664.379 143.066 665.121 144.805 666.605 146.172C668.09 147.539 670.121 148.223 672.699 148.223Z" fill="black"/>
<path d="M748.637 142.48C748.637 140.41 747.602 138.789 745.531 137.617C743.5 136.406 740.219 135.332 735.688 134.395C720.609 131.23 713.07 124.824 713.07 115.176C713.07 109.551 715.395 104.863 720.043 101.113C724.73 97.3242 730.844 95.4297 738.383 95.4297C746.43 95.4297 752.855 97.3242 757.66 101.113C762.504 104.902 764.926 109.824 764.926 115.879H747.992C747.992 113.457 747.211 111.465 745.648 109.902C744.086 108.301 741.645 107.5 738.324 107.5C735.473 107.5 733.266 108.145 731.703 109.434C730.141 110.723 729.359 112.363 729.359 114.355C729.359 116.23 730.238 117.754 731.996 118.926C733.793 120.059 736.801 121.055 741.02 121.914C745.238 122.734 748.793 123.672 751.684 124.727C760.629 128.008 765.102 133.691 765.102 141.777C765.102 147.559 762.621 152.246 757.66 155.84C752.699 159.395 746.293 161.172 738.441 161.172C733.129 161.172 728.402 160.234 724.262 158.359C720.16 156.445 716.938 153.848 714.594 150.566C712.25 147.246 711.078 143.672 711.078 139.844H727.133C727.289 142.852 728.402 145.156 730.473 146.758C732.543 148.359 735.316 149.16 738.793 149.16C742.035 149.16 744.477 148.555 746.117 147.344C747.797 146.094 748.637 144.473 748.637 142.48Z" fill="black"/>
</svg>
